<?xml version="1.0" encoding="UTF-8" standalone="no"?>
<!-- Created with Inkscape (http://www.inkscape.org/) -->

<svg
   xmlns:dc="http://purl.org/dc/elements/1.1/"
   xmlns:cc="http://creativecommons.org/ns#"
   xmlns:rdf="http://www.w3.org/1999/02/22-rdf-syntax-ns#"
   xmlns:svg="http://www.w3.org/2000/svg"
   xmlns="http://www.w3.org/2000/svg"
   xmlns:sodipodi="http://sodipodi.sourceforge.net/DTD/sodipodi-0.dtd"
   xmlns:inkscape="http://www.inkscape.org/namespaces/inkscape"
   width="100mm"
   height="100mm"
   viewBox="0 0 99.999996 99.999997"
   version="1.1"
   id="svg8"
   sodipodi:docname="Sixtine_logoSeul.svg"
   inkscape:version="0.92.3 (2405546, 2018-03-11)">
  <defs
     id="defs2" />
  <sodipodi:namedview
     id="base"
     pagecolor="#ffffff"
     bordercolor="#666666"
     borderopacity="1.0"
     inkscape:pageopacity="0.0"
     inkscape:pageshadow="2"
     inkscape:zoom="0.7"
     inkscape:cx="261.98551"
     inkscape:cy="-87.152917"
     inkscape:document-units="mm"
     inkscape:current-layer="g943"
     showgrid="false"
     inkscape:window-width="1920"
     inkscape:window-height="1017"
     inkscape:window-x="-8"
     inkscape:window-y="-8"
     inkscape:window-maximized="1"
     inkscape:snap-global="false" />
  <metadata
     id="metadata5">
    <rdf:RDF>
      <cc:Work
         rdf:about="">
        <dc:format>image/svg+xml</dc:format>
        <dc:type
           rdf:resource="http://purl.org/dc/dcmitype/StillImage" />
        <dc:title></dc:title>
      </cc:Work>
    </rdf:RDF>
  </metadata>
  <g
     inkscape:label="Calque 1"
     inkscape:groupmode="layer"
     id="layer1"
     transform="translate(-30.352966,-50.971252)">
    <g
       id="g943"
       transform="translate(138.33928,-25.702381)">
      <g
         id="g9487"
         transform="matrix(0.64866873,0,0,0.57557143,-37.93897,32.814148)"
         style="stroke-width:1.63658643">
        <path
           inkscape:connector-curvature="0"
           id="path967"
           d="m -57.231938,242.66595 c 2.64e-4,-2.32833 0.04081,-3.24541 0.08995,-2.03796 0.04914,1.20746 0.04886,3.11246 -5.3e-4,4.23334 -0.04947,1.12088 -0.08967,0.13296 -0.08934,-2.19538 z m -1.409129,2.09462 c 0.0127,-0.30823 0.07539,-0.37092 0.159851,-0.15985 0.07643,0.19099 0.06703,0.4192 -0.02088,0.50712 -0.08792,0.0879 -0.150452,-0.0684 -0.138964,-0.34727 z m -0.264583,-1.32292 c 0.0127,-0.30822 0.07539,-0.37091 0.159851,-0.15985 0.07643,0.191 0.06703,0.4192 -0.02088,0.50712 -0.08792,0.0879 -0.150453,-0.0684 -0.138964,-0.34727 z m 39.798901,-1.1882 c -0.582083,-0.43926 -1.105405,-0.93435 -1.162936,-1.1002 -0.05753,-0.16585 0.448484,0.15167 1.124479,0.7056 1.069451,0.87633 1.410211,1.22813 1.162936,1.20062 -0.03638,-0.004 -0.542396,-0.36676 -1.124479,-0.80602 z m -40.042598,-0.50954 c 0,-0.3638 0.06005,-0.51263 0.133453,-0.33073 0.0734,0.1819 0.0734,0.47956 0,0.66146 -0.0734,0.1819 -0.133453,0.0331 -0.133453,-0.33073 z m 38.058223,-1.05833 c -0.15576,-0.29104 -0.223671,-0.52917 -0.15091,-0.52917 0.07276,0 0.259733,0.23813 0.415494,0.52917 0.15576,0.29104 0.22367,0.52916 0.15091,0.52916 -0.07276,0 -0.259734,-0.23812 -0.415494,-0.52916 z m -38.343693,-0.68351 c 0.0127,-0.30822 0.07539,-0.37092 0.159851,-0.15985 0.07643,0.19099 0.06703,0.4192 -0.02088,0.50712 -0.08792,0.0879 -0.150452,-0.0684 -0.138964,-0.34727 z m 36.607947,-0.40064 c -0.229002,-0.37053 0.348282,-0.50306 0.643234,-0.14766 0.219215,0.26414 0.191294,0.34986 -0.113953,0.34986 -0.222372,0 -0.460547,-0.091 -0.529281,-0.2022 z m -0.678577,-0.37106 c -0.0182,-0.0728 -0.04978,-0.22159 -0.0702,-0.33073 -0.02043,-0.10914 -0.142066,-0.37703 -0.270328,-0.59531 -0.189002,-0.32166 -0.166176,-0.3347 0.120436,-0.0688 0.334203,0.31002 0.596665,1.12716 0.362043,1.12716 -0.05989,0 -0.123764,-0.0595 -0.141955,-0.13229 z m -36.163261,-1.32292 c 0.0054,-0.43656 0.06469,-0.58312 0.131773,-0.32569 0.06708,0.25743 0.06267,0.61462 -0.0098,0.79375 -0.07248,0.17913 -0.127363,-0.0315 -0.12197,-0.46806 z m 34.575084,-0.59531 c -0.329107,-0.41964 -0.319749,-0.429 0.0999,-0.0999 0.44073,0.34565 0.580888,0.56292 0.363125,0.56292 -0.05494,0 -0.2633,-0.20836 -0.463021,-0.46302 z m -31.959943,-0.22048 c 0.0127,-0.30823 0.07539,-0.37092 0.159851,-0.15986 0.07643,0.191 0.06703,0.4192 -0.02088,0.50712 -0.08792,0.0879 -0.150452,-0.0684 -0.138964,-0.34726 z m 0.264584,-1.32292 c 0.0127,-0.30823 0.07539,-0.37092 0.15985,-0.15985 0.07643,0.19099 0.06703,0.4192 -0.02087,0.50711 -0.08792,0.0879 -0.150453,-0.0683 -0.138965,-0.34726 z m -3.154114,-0.63941 c 0,-0.3638 0.06005,-0.51263 0.133453,-0.33073 0.0734,0.1819 0.0734,0.47956 0,0.66146 -0.0734,0.1819 -0.133453,0.0331 -0.133453,-0.33073 z m 29.557807,-2.05052 c -0.329108,-0.41965 -0.319749,-0.42901 0.0999,-0.0999 0.254661,0.19972 0.463021,0.40808 0.463021,0.46302 0,0.21776 -0.217274,0.0776 -0.562917,-0.36312 z m -56.566193,-0.22049 c 0.01269,-0.30822 0.07539,-0.37092 0.159853,-0.15985 0.07643,0.19099 0.06703,0.4192 -0.02089,0.50712 -0.08792,0.0879 -0.150453,-0.0684 -0.138965,-0.34727 z m 27.252083,-0.26458 c 0.0127,-0.30823 0.07539,-0.37092 0.159851,-0.15985 0.07643,0.19099 0.06703,0.4192 -0.02088,0.50711 -0.08792,0.0879 -0.150453,-0.0684 -0.138964,-0.34726 z m 27.60293,-0.97014 -0.504028,-0.59531 0.595312,0.50402 c 0.559446,0.47367 0.715762,0.6866 0.504029,0.6866 -0.05021,0 -0.318098,-0.26789 -0.595313,-0.59531 z m -55.119596,-0.61736 c 0.01269,-0.30823 0.07539,-0.37092 0.159852,-0.15985 0.07643,0.19099 0.06703,0.4192 -0.02089,0.50711 -0.08792,0.0879 -0.150452,-0.0684 -0.138964,-0.34726 z M 11.8495,230.89622 c 1.600729,-0.0936 3.023526,-0.0733 3.161771,0.0451 0.138244,0.1184 -1.171443,0.19499 -2.910417,0.1702 l -3.1617707,-0.0451 z m -7.7354243,-0.19408 c 0.4021825,-0.0608 0.997495,-0.0592 1.3229166,0.004 0.3254216,0.0628 -0.00365,0.11256 -0.7312422,0.11058 -0.7276041,-0.002 -0.993857,-0.0534 -0.5916744,-0.11419 z m -38.0626287,-0.67004 -0.504029,-0.59531 0.595313,0.50403 c 0.559446,0.47366 0.715761,0.68659 0.504029,0.68659 -0.05021,0 -0.318098,-0.26789 -0.595313,-0.59531 z m 33.42878251,0.40859 c 0.32742186,-0.0631 0.86320309,-0.0631 1.19062495,0 0.32742186,0.0631 0.0595312,0.11466 -0.59531247,0.11466 -0.65484373,0 -0.92273434,-0.0516 -0.59531248,-0.11466 z m 13.51028549,0.006 c 0.190995,-0.0764 0.419201,-0.067 0.507119,0.0209 0.08792,0.0879 -0.06835,0.15045 -0.347265,0.13897 -0.308227,-0.0127 -0.37092,-0.0754 -0.159854,-0.15985 z m -17.0821603,-0.26623 c 0.2546614,-0.0666 0.6713801,-0.0666 0.9260416,0 0.2546614,0.0666 0.046302,0.121 -0.4630208,0.121 -0.5093229,0 -0.7176823,-0.0545 -0.4630208,-0.121 z m 15.4946603,0.002 c 0.190995,-0.0764 0.419201,-0.067 0.507119,0.0209 0.08792,0.0879 -0.06835,0.15045 -0.347265,0.13896 -0.308227,-0.0127 -0.37092,-0.0754 -0.159854,-0.15985 z m -18.6646252,-0.2672 c 0.2574317,-0.0671 0.6146191,-0.0627 0.79375,0.01 0.1791308,0.0725 -0.031493,0.12736 -0.4680558,0.12197 -0.4365625,-0.005 -0.5831258,-0.0647 -0.3256942,-0.13177 z m 16.8125424,0.003 c 0.1909948,-0.0764 0.4192005,-0.067 0.5071188,0.0209 0.08792,0.0879 -0.068352,0.15046 -0.3472655,0.13897 -0.3082263,-0.0127 -0.3709194,-0.0754 -0.1598533,-0.15985 z M -87.434814,228.9084 c 0.0029,-0.58208 0.05712,-0.78905 0.120406,-0.45994 0.06329,0.32912 0.06088,0.80537 -0.0053,1.05834 -0.06622,0.25296 -0.118004,-0.0163 -0.115067,-0.5984 z m 77.935747,0.7453 c 0.1909948,-0.0764 0.4192005,-0.067 0.5071189,0.0209 0.087918,0.0879 -0.068352,0.15045 -0.3472656,0.13896 -0.3082263,-0.0127 -0.3709193,-0.0754 -0.1598533,-0.15985 z m 17.1813795,0.006 c 0.181901,-0.0734 0.4795573,-0.0734 0.6614583,0 0.181901,0.0734 0.033073,0.13345 -0.3307292,0.13345 -0.363802,0 -0.5126301,-0.0601 -0.3307291,-0.13345 z M -11.35115,229.3896 c 0.190995,-0.0764 0.4192,-0.067 0.507119,0.0209 0.08792,0.0879 -0.06835,0.15045 -0.347266,0.13896 -0.308226,-0.0127 -0.370919,-0.0754 -0.159853,-0.15985 z m 17.462499,0 c 0.1909948,-0.0764 0.4192005,-0.067 0.5071189,0.0209 0.087918,0.0879 -0.068352,0.15045 -0.3472656,0.13896 -0.3082263,-0.0127 -0.3709193,-0.0754 -0.1598533,-0.15985 z m -18.785416,-0.26458 c 0.190995,-0.0764 0.419201,-0.067 0.507119,0.0209 0.08792,0.0879 -0.06835,0.15046 -0.347266,0.13897 -0.308226,-0.0127 -0.370919,-0.0754 -0.159853,-0.15985 z m 16.9167963,0.006 c 0.181901,-0.0734 0.4795573,-0.0734 0.6614583,0 0.181901,0.0734 0.033073,0.13345 -0.3307291,0.13345 -0.3638021,0 -0.5126302,-0.06 -0.3307292,-0.13345 z m -39.9196863,-0.55236 c -0.329107,-0.41964 -0.319749,-0.429 0.0999,-0.0999 0.44073,0.34565 0.580888,0.56292 0.363125,0.56292 -0.05494,0 -0.2633,-0.20836 -0.463021,-0.46302 z m 38.0676031,0.28779 c 0.181901,-0.0734 0.4795572,-0.0734 0.6614583,0 0.181901,0.0734 0.033073,0.13346 -0.3307292,0.13346 -0.3638021,0 -0.5126302,-0.0601 -0.3307291,-0.13346 z m -1.57096352,-0.27009 c 0.19099472,-0.0764 0.41920052,-0.067 0.50711892,0.0209 0.087918,0.0879 -0.068353,0.15046 -0.34726562,0.13897 -0.30822634,-0.0127 -0.37091935,-0.0754 -0.1598533,-0.15985 z m -1.58749993,-0.26458 c 0.19099476,-0.0764 0.41920052,-0.067 0.50711891,0.0209 0.0879184,0.0879 -0.0683525,0.15045 -0.34726561,0.13897 -0.30822634,-0.0127 -0.37091936,-0.0754 -0.1598533,-0.15986 z m -1.58749995,-0.26459 c 0.1909948,-0.0764 0.4192005,-0.067 0.5071189,0.0209 0.087918,0.0879 -0.068352,0.15045 -0.3472656,0.13896 -0.3082263,-0.0127 -0.3709193,-0.0754 -0.1598533,-0.15985 z m -1.5874999,-0.26458 c 0.1909947,-0.0764 0.4192005,-0.067 0.5071189,0.0209 0.087918,0.0879 -0.068353,0.15046 -0.3472656,0.13897 -0.3082264,-0.0127 -0.3709194,-0.0754 -0.1598533,-0.15985 z m -33.4453188,-0.67916 -0.504029,-0.59531 0.595313,0.50403 c 0.559445,0.47366 0.715761,0.68659 0.504028,0.68659 -0.05021,0 -0.318098,-0.26789 -0.595312,-0.59531 z m 31.8578189,0.41458 c 0.1909947,-0.0764 0.4192005,-0.067 0.5071189,0.0209 0.087918,0.0879 -0.068352,0.15045 -0.3472656,0.13897 -0.3082264,-0.0127 -0.3709194,-0.0754 -0.1598533,-0.15986 z m -74.6290329,-1.0546 c 0.181901,-0.0734 0.479557,-0.0734 0.661458,0 0.181901,0.0734 0.03307,0.13346 -0.330729,0.13346 -0.363802,0 -0.51263,-0.0601 -0.330729,-0.13346 z m 56.90195,-0.006 c 0.190995,-0.0764 0.419201,-0.067 0.507119,0.0209 0.08792,0.0879 -0.06835,0.15045 -0.347265,0.13896 -0.308227,-0.0127 -0.37092,-0.0754 -0.159854,-0.15985 z m -62.17708,-0.26458 c 0.190996,-0.0764 0.419199,-0.067 0.507118,0.0209 0.08792,0.0879 -0.06835,0.15046 -0.347266,0.13897 -0.308224,-0.0127 -0.370919,-0.0754 -0.159852,-0.15985 z m 3.423046,0.006 c 0.181901,-0.0734 0.479558,-0.0734 0.661459,0 0.181901,0.0734 0.03307,0.13345 -0.330729,0.13345 -0.363803,0 -0.512631,-0.0601 -0.33073,-0.13345 z m 6.617668,-0.80565 c 0.329118,-0.0633 0.805368,-0.0609 1.058334,0.005 0.252965,0.0662 -0.01633,0.11801 -0.598398,0.11507 -0.582083,-0.003 -0.789053,-0.0571 -0.459936,-0.12041 z m 17.546449,-0.23179 c 0.0127,-0.30823 0.07539,-0.37092 0.159851,-0.15986 0.07643,0.191 0.06703,0.4192 -0.02088,0.50712 -0.08792,0.0879 -0.150452,-0.0684 -0.138964,-0.34726 z m -12.254782,-0.0328 c 0.329118,-0.0633 0.805368,-0.0609 1.058333,0.005 0.252966,0.0662 -0.01632,0.118 -0.598397,0.11507 -0.582084,-0.003 -0.789054,-0.0571 -0.459936,-0.12041 z m -26.180298,-0.2582 c 0.190997,-0.0764 0.4192,-0.067 0.507119,0.0209 0.08792,0.0879 -0.06835,0.15045 -0.347266,0.13896 -0.308225,-0.0127 -0.370919,-0.0754 -0.159853,-0.15985 z m -1.322916,-0.26458 c 0.190996,-0.0764 0.419199,-0.067 0.507118,0.0209 0.08792,0.0879 -0.06835,0.15046 -0.347266,0.13897 -0.308224,-0.0127 -0.370919,-0.0754 -0.159852,-0.15985 z m 52.66794,-0.28228 c -0.329107,-0.41965 -0.319749,-0.42901 0.0999,-0.0999 0.254662,0.19972 0.463021,0.40808 0.463021,0.46302 0,0.21777 -0.217273,0.0776 -0.562917,-0.36312 z m 12.419557,0.0177 c 0.190995,-0.0764 0.419201,-0.067 0.507119,0.0209 0.08792,0.0879 -0.06835,0.15046 -0.347266,0.13897 -0.308226,-0.0127 -0.370919,-0.0754 -0.159853,-0.15985 z m -3.96875,-0.79375 c 0.190995,-0.0764 0.419201,-0.067 0.507119,0.0209 0.08792,0.0879 -0.06835,0.15046 -0.347266,0.13897 -0.308226,-0.0127 -0.370919,-0.0754 -0.159853,-0.15985 z m -2.662369,-0.27057 c 0.327421,-0.0631 0.863203,-0.0631 1.190624,0 0.327422,0.0631 0.05953,0.11466 -0.595312,0.11466 -0.654844,0 -0.922734,-0.0516 -0.595312,-0.11466 z M -95.2406,222.77927 c 0.181901,-0.0734 0.479558,-0.0734 0.661459,0 0.181901,0.0734 0.03307,0.13345 -0.33073,0.13345 -0.363802,0 -0.51263,-0.0601 -0.330729,-0.13345 z m 75.422783,-0.006 c 0.190995,-0.0764 0.419201,-0.067 0.507119,0.0209 0.08792,0.0879 -0.06835,0.15045 -0.347265,0.13896 -0.308227,-0.0127 -0.37092,-0.0754 -0.159854,-0.15985 z m -73.570699,-0.25908 c 0.181901,-0.0734 0.479557,-0.0734 0.661458,0 0.181901,0.0734 0.03307,0.13346 -0.330729,0.13346 -0.363802,0 -0.512631,-0.0601 -0.330729,-0.13346 z m 2.116666,-0.26458 c 0.181901,-0.0734 0.479557,-0.0734 0.661458,0 0.181901,0.0734 0.03307,0.13345 -0.330729,0.13345 -0.363802,0 -0.51263,-0.0601 -0.330729,-0.13345 z m 18.393576,-0.008 c 0.257432,-0.0671 0.614619,-0.0627 0.79375,0.01 0.179131,0.0725 -0.03149,0.12737 -0.468056,0.12197 -0.436562,-0.005 -0.583126,-0.0647 -0.325694,-0.13177 z m 4.112543,0.003 c 0.190995,-0.0764 0.419198,-0.067 0.507119,0.0209 0.08792,0.0879 -0.06835,0.15045 -0.347266,0.13896 -0.308226,-0.0127 -0.370919,-0.0754 -0.159853,-0.15985 z m -20.252125,-0.26719 c 0.257431,-0.0671 0.614618,-0.0627 0.79375,0.01 0.179131,0.0725 -0.03149,0.12736 -0.468057,0.12197 -0.436562,-0.005 -0.583124,-0.0647 -0.325693,-0.13177 z m 14.431292,0.003 c 0.190995,-0.0764 0.419198,-0.067 0.507119,0.0209 0.08792,0.0879 -0.06835,0.15045 -0.347266,0.13896 -0.308226,-0.0127 -0.370919,-0.0754 -0.159853,-0.15985 z m 7.14375,0 c 0.190994,-0.0764 0.419197,-0.067 0.507118,0.0209 0.08792,0.0879 -0.06835,0.15045 -0.347265,0.13896 -0.308227,-0.0127 -0.37092,-0.0754 -0.159853,-0.15985 z m -19.193792,-0.2672 c 0.257431,-0.0671 0.614618,-0.0627 0.79375,0.01 0.179131,0.0725 -0.03149,0.12736 -0.468057,0.12197 -0.436562,-0.005 -0.583124,-0.0647 -0.325693,-0.13177 z m 2.645833,-0.26458 c 0.257431,-0.0671 0.614618,-0.0627 0.79375,0.01 0.179131,0.0725 -0.03149,0.12736 -0.468056,0.12197 -0.436563,-0.005 -0.583125,-0.0647 -0.325694,-0.13178 z m 6.229209,0.003 c 0.190995,-0.0764 0.419198,-0.067 0.507119,0.0209 0.08792,0.0879 -0.06835,0.15046 -0.347266,0.13897 -0.308226,-0.0127 -0.370919,-0.0754 -0.159853,-0.15985 z m 30.068937,-0.10145 c -0.09592,-0.1552 -0.117655,-0.33893 -0.0483,-0.40829 0.06935,-0.0694 0.196601,0.0576 0.282773,0.28219 0.178906,0.46622 0.02643,0.54823 -0.234473,0.1261 z m 21.260227,0.10145 c 0.190995,-0.0764 0.419201,-0.067 0.507119,0.0209 0.08792,0.0879 -0.06835,0.15046 -0.347265,0.13897 -0.308227,-0.0127 -0.37092,-0.0754 -0.159854,-0.15985 z m -1.322916,-0.26459 c 0.190995,-0.0764 0.4192,-0.067 0.507119,0.0209 0.08792,0.0879 -0.06835,0.15045 -0.347266,0.13896 -0.308226,-0.0127 -0.370919,-0.0754 -0.159853,-0.15985 z m -1.322917,-0.26458 c 0.190995,-0.0764 0.419201,-0.067 0.507119,0.0209 0.08792,0.0879 -0.06835,0.15045 -0.347265,0.13896 -0.308227,-0.0127 -0.37092,-0.0754 -0.159854,-0.15985 z m -19.529556,-1.14227 c -0.238467,-0.15411 -0.2711,-0.2581 -0.08176,-0.26054 0.173313,-0.002 0.3887,0.11501 0.478637,0.26054 0.203015,0.32848 0.111421,0.32848 -0.396875,0 z m 14.502473,0.0838 c 0.190995,-0.0764 0.419201,-0.067 0.507119,0.0209 0.08792,0.0879 -0.06835,0.15046 -0.347266,0.13897 -0.308226,-0.0127 -0.370919,-0.0754 -0.159853,-0.15985 z m -22.307681,-2.99426 c 0.26339,-0.29104 0.538422,-0.52917 0.611182,-0.52917 0.07276,0 -0.08321,0.23813 -0.346599,0.52917 -0.26339,0.29104 -0.538422,0.52917 -0.611182,0.52917 -0.07276,0 0.08321,-0.23813 0.346599,-0.52917 z m 11.753931,-0.99219 -0.641432,-0.7276 0.727604,0.64143 c 0.680056,0.59952 0.84894,0.81378 0.641432,0.81378 -0.04739,0 -0.374814,-0.32743 -0.727604,-0.72761 z m -1.25131,-5.4901 c 0.0054,-0.43656 0.06469,-0.58313 0.131774,-0.3257 0.06708,0.25744 0.06267,0.61462 -0.0098,0.79375 -0.07248,0.17913 -0.127363,-0.0315 -0.121971,-0.46805 z m 66.028105,-3.77015 c 4.110963,-0.041 10.837994,-0.041 14.948957,0 4.110964,0.041 0.747448,0.0746 -7.474479,0.0746 -8.221926,0 -11.585442,-0.0336 -7.474478,-0.0746 z m -44.433462,-7.65538 c 0.190995,-0.0764 0.419201,-0.067 0.507119,0.0209 0.08792,0.0879 -0.06835,0.15046 -0.347266,0.13897 -0.308226,-0.0127 -0.370919,-0.0754 -0.159853,-0.15985 z m -33.072915,-0.79375 c 0.190995,-0.0764 0.419198,-0.067 0.507119,0.0209 0.08792,0.0879 -0.06835,0.15046 -0.347266,0.13897 -0.308226,-0.0127 -0.370919,-0.0754 -0.159853,-0.15985 z m 1.70829,-0.003 c 0.257432,-0.0671 0.614619,-0.0627 0.79375,0.01 0.179131,0.0725 -0.03149,0.12736 -0.468056,0.12197 -0.436562,-0.005 -0.583126,-0.0647 -0.325694,-0.13178 z m 90.092579,-1.33363 c 0.62231,-0.0559 1.57481,-0.0551 2.116667,0.002 0.541856,0.0568 0.03269,0.10258 -1.131473,0.10162 -1.164166,-0.001 -1.607505,-0.0475 -0.985194,-0.10337 z m -69.327823,-0.24571 c 0.181901,-0.0734 0.479557,-0.0734 0.661458,0 0.181901,0.0734 0.03307,0.13345 -0.330729,0.13345 -0.363802,0 -0.51263,-0.0601 -0.330729,-0.13345 z m -67.336458,-0.27174 c 0.25466,-0.0666 0.67138,-0.0666 0.92604,0 0.25467,0.0665 0.0463,0.121 -0.46302,0.121 -0.50932,0 -0.71768,-0.0545 -0.46302,-0.121 z m 48.10891,-2.88237 c 0.0127,-0.30823 0.07539,-0.37092 0.159851,-0.15986 0.07643,0.191 0.06703,0.4192 -0.02088,0.50712 -0.08792,0.0879 -0.150453,-0.0684 -0.138965,-0.34726 z m 1.343803,-36.09358 c 0,-0.3638 0.06005,-0.51263 0.133453,-0.33073 0.0734,0.1819 0.0734,0.47956 0,0.66146 -0.0734,0.1819 -0.133453,0.0331 -0.133453,-0.33073 z m 0.243697,-7.82725 c 0.0127,-0.30823 0.07539,-0.37092 0.15985,-0.15986 0.07643,0.191 0.06703,0.4192 -0.02087,0.50712 -0.08792,0.0879 -0.150453,-0.0684 -0.138965,-0.34726 z m 0.305078,-8.57691 c 0,-0.50933 0.05445,-0.71769 0.121001,-0.46302 0.06655,0.25466 0.06655,0.67138 0,0.92604 -0.06655,0.25466 -0.121001,0.0463 -0.121001,-0.46302 z m -0.284192,-13.75834 c 0,-0.3638 0.06006,-0.51263 0.133453,-0.33073 0.0734,0.18191 0.0734,0.47956 0,0.66146 -0.0734,0.1819 -0.133453,0.0331 -0.133453,-0.33073 z"
           style="fill:#f1e1a4;stroke-width:1.63658643" />
        <path
           inkscape:connector-curvature="0"
           id="path965"
           d="m -57.612433,248.85094 c -1.074531,-3.99051 -1.950987,-10.19501 -1.938893,-13.72561 0.01032,-3.01244 0.09765,-3.60091 0.979517,-6.60071 0.989052,-3.3644 1.216758,-5.4803 0.650687,-6.04637 -0.604605,-0.60461 -2.351683,-0.32664 -5.328147,0.84773 -4.073202,1.6071 -4.52414,1.70281 -9.31295,1.97679 -2.568831,0.14697 -4.690186,0.40539 -5.414319,0.65957 -0.944568,0.33155 -1.820847,0.38426 -4.240158,0.25507 -5.045659,-0.26945 -5.632652,0.37244 -4.881951,5.33852 0.47805,3.16243 0.419703,4.08499 -0.147382,2.33035 -0.701156,-2.16946 -2.232604,-5.00269 -3.349575,-6.19682 -1.654597,-1.7689 -3.44124,-2.51506 -7.819996,-3.2659 -2.95846,-0.50729 0.926762,-1.35571 11.575521,-2.52775 6.017834,-0.66235 7.526464,-0.65906 11.408957,0.0249 4.219167,0.74323 7.295642,0.59695 10.419167,-0.4954 8.188668,-2.86375 12.059157,-6.39943 13.676775,-12.4937 0.7141,-2.69032 0.564808,-4.94048 -0.550794,-8.30188 -0.525333,-1.58287 -0.955148,-2.92193 -0.955148,-2.97569 0,-0.0538 0.573423,0.49716 1.274275,1.22428 1.498354,1.55452 2.412344,1.70395 4.193249,0.68556 l 1.101897,-0.6301 0.191606,2.55152 c 0.105383,1.40333 0.204843,4.892 0.22102,7.75258 l 0.02941,5.20106 0.816723,1.01665 c 1.769523,2.20268 5.391822,3.38692 18.417579,6.02129 9.845177,1.99112 11.965977,2.5688 16.524263,4.50098 3.7275586,1.58006 4.6332273,1.77129 17.6849532,3.73433 3.4912268,0.5251 6.4082588,1.02178 6.4822918,1.10373 0.360441,0.39901 -19.1432414,-0.5491 -23.1487286,-1.12531 -2.5147984,-0.36176 -5.5799754,-1.02807 -9.6572914,-2.09931 -9.815409,-2.5788 -19.512755,-4.57904 -20.724806,-4.27483 -0.955913,0.23992 -0.88877,0.75763 0.263707,2.03329 1.201135,1.32951 7.852394,6.99783 13.317349,11.34928 4.01343,3.19567 5.813497,4.74451 3.96875,3.41485 -0.509323,-0.36711 -4.67651,-3.20657 -9.260416,-6.30992 -14.305076,-9.68467 -15.105154,-10.30438 -16.372019,-12.68127 -0.47131,-0.88427 -0.989417,-1.60776 -1.15135,-1.60776 -1.21516,0 -4.555331,5.72869 -6.633527,11.37708 -1.702689,4.6278 -1.907027,6.02714 -1.883485,12.89844 0.01159,3.38336 -0.01357,6.15156 -0.05595,6.15156 -0.04236,0 -0.20923,-0.49097 -0.370814,-1.09105 z"
           style="fill:#fdd865;stroke-width:1.63658643" />
        <path
           id="path973"
           d="m 23.350371,196.98749 c -0.0047,-0.48851 -0.229823,-11.04655 -0.500322,-23.46232 -0.472144,-21.6712 -0.512543,-22.59719 -1.010073,-23.15104 -0.285041,-0.31731 -4.018727,-4.44903 -8.297077,-9.18161 C 9.2645499,136.45995 1.4084281,127.76839 -3.9151497,121.87794 -9.2387302,115.9875 -14.199649,110.5132 -14.939413,109.71283 l -1.345031,-1.4552 -0.881986,0.82293 c -1.653979,1.54325 -34.482845,30.41958 -34.814797,30.62317 -0.260736,0.15991 -0.327945,-0.99036 -0.317582,-5.43518 l 0.01315,-5.63801 16.783769,-15.08125 c 9.231074,-8.29468 17.232111,-15.286483 17.780081,-15.537328 2.276399,-1.042071 3.619744,-0.389101 7.256404,3.527178 1.5395049,1.65788 10.15222382,11.05104 19.1393731,20.87369 8.9871519,9.82266 17.5095739,19.05 18.9387159,20.50521 1.429144,1.45521 2.721051,2.97441 2.870909,3.376 0.38056,1.01984 0.757652,14.06099 0.970377,33.55908 l 0.180695,16.56215 -0.863677,0.17274 c -0.475022,0.095 -1.414341,0.1745 -2.087374,0.17665 -1.127874,0.004 -3.762264,0.50896 -4.861719,0.93262 -0.383627,0.14782 -0.464479,0.0261 -0.471524,-0.70979 z"
           style="fill:#61a4cc;stroke-width:1.63658643"
           inkscape:connector-curvature="0" />
        <g
           id="g995"
           style="stroke-width:1.63658643">
          <g
             id="g981"
             style="stroke-width:1.63658643">
            <path
               inkscape:connector-curvature="0"
               id="path961"
               d="m -2.3403022,195.27164 c -0.2780691,-0.57996 -0.3356107,-0.95916 -0.1618456,-1.06655 0.1691852,-0.10456 0.2152782,-1.07759 0.1237324,-2.61202 -0.080243,-1.34496 -0.048329,-2.54815 0.070916,-2.67375 0.1192477,-0.1256 1.2697591,-2.14261 2.5566977,-4.48225 2.2154091,-4.02759 2.3750719,-4.24443 3.0013432,-4.07612 2.2615075,0.60778 2.6286221,0.58271 3.4466264,-0.23529 0.432689,-0.43269 0.7867068,-0.67337 0.7867068,-0.53484 0,0.37444 -8.6918029,16.0153 -9.0689797,16.31958 -0.2346192,0.18927 -0.4424944,0.0134 -0.7551972,-0.63876 z m -13.0133268,-5.13045 c 4.24703,-2.18007 7.9031936,-3.96378 8.1248086,-3.96378 0.3195532,0 0.418928,0.42435 0.4802135,2.05052 l 0.077274,2.05053 -3.7041661,1.90708 -3.704167,1.90709 -4.497916,0.006 -4.497917,0.006 7.72187,-3.96378 z m 11.5771368,-15.9939 c -0.2824744,-0.21365 -0.9303094,-0.39225 -1.4396323,-0.39688 -0.8350567,-0.008 -0.9247478,-0.0799 -0.9128759,-0.73602 0.00725,-0.40018 0.4955751,-1.67162 1.0851885,-2.82541 l 1.0720255,-2.09781 1.1355942,1.96552 c 0.6245781,1.08103 1.1832669,2.05191 1.2415334,2.15749 0.1562815,0.2832 -1.0609023,2.31715 -1.3880834,2.31953 -0.1540881,10e-4 -0.5112756,-0.17277 -0.79375,-0.38642 z"
               style="fill:#74cca7;stroke-width:1.63658643" />
            <path
               inkscape:connector-curvature="0"
               id="path959"
               d="m -34.610964,180.5809 c -0.378153,-0.13294 -0.839671,-0.52595 -1.025596,-0.87336 -0.437674,-0.8178 -0.162642,-2.30125 0.503822,-2.71746 0.280697,-0.1753 2.394029,-0.49921 4.696298,-0.71981 2.302267,-0.22059 8.115004,-0.83351 12.917191,-1.36204 12.1100237,-1.33283 12.0432429,-1.3292 12.8233403,-0.69751 0.823296,0.66666 0.8868119,2.21059 0.122391,2.97501 -0.4319111,0.43192 -1.2255023,0.58907 -4.616979,0.91432 -5.7527183,0.55169 -22.3541023,2.35979 -24.0714603,2.62169 -0.363802,0.0555 -0.970856,-0.008 -1.349007,-0.14084 z M 2.9592885,176.007 c -1.2515955,-0.32861 -2.39183585,-0.6693 -2.53386417,-0.75708 -0.14203098,-0.0878 -1.17182631,-1.69932 -2.28843403,-3.58119 -2.2131813,-3.73 -2.4348175,-4.59812 -1.4178333,-5.55353 0.9272429,-0.8711 2.0933515,-0.75898 2.96018734,0.28461 0.64547218,0.77709 5.95244736,9.79867 5.95244736,10.11885 0,0.18355 -0.091043,0.16612 -2.6725032,-0.51166 z"
               style="fill:#94ad9a;stroke-width:1.63658643" />
            <path
               id="path971"
               d="m -2.917324,194.71282 c -0.2852817,-0.28528 -1.036521,-0.51173 -1.974924,-0.59531 l -1.5145014,-0.13489 -0.2361618,-3.9026 c -0.1796865,-2.96934 -0.3210004,-3.90261 -0.5909336,-3.90261 -0.1951276,0 -1.2385198,0.43729 -2.3186548,0.97176 l -1.9638804,0.97175 -8.636293,-2.6254 -8.636293,-2.6254 -0.764948,-1.23419 -0.764947,-1.23419 1.240432,-0.14905 c 4.391533,-0.52769 3.498258,-0.67941 12.760349,2.16727 4.723627,1.45179 8.8111058,2.73077 9.0832827,2.84219 0.4748503,0.19438 0.4870423,0.0514 0.3013842,-3.53431 l -0.1934818,-3.73687 1.0755127,-0.17198 c 1.3461814,-0.21527 1.9994244,-0.91439 1.9994244,-2.13987 0,-0.6702 -0.178689,-1.09166 -0.6113939,-1.44204 -0.4795784,-0.38834 -0.5175011,-0.49508 -0.1759003,-0.49508 0.239522,0 0.6991959,0.17251 1.021498,0.38336 0.3223022,0.21085 2.3719419,0.80609 4.55475429,1.32275 2.18281241,0.51665 4.46245171,1.12319 5.06586571,1.34785 1.9099529,0.71112 2.17279,2.61489 0.5113152,3.70353 -0.6324626,0.4144 -0.8662828,0.38369 -4.831556,-0.63456 -2.2918128,-0.58851 -4.2168126,-1.02015 -4.2777779,-0.95918 -0.060968,0.061 0.029991,3.45904 0.2021285,7.55129 0.213905,5.08517 0.2271553,7.54385 0.04186,7.76712 -0.1872139,0.22558 -0.1748102,0.42299 0.040084,0.63788 0.1711642,0.17117 0.2533755,0.31121 0.1826948,0.31121 -0.070683,0 -0.3357034,-0.20719 -0.5889386,-0.46043 z"
               style="fill:#61a4cc;stroke-width:1.63658643"
               inkscape:connector-curvature="0" />
            <path
               id="path957"
               d="m -8.4172069,164.68002 -4.0026161,-3.24115 -1.843392,-3.175 c -3.17782,-5.47337 -3.794884,-6.65302 -3.23777,-6.18965 0.280998,0.23371 3.933949,3.19177 8.1176732,6.57347 4.1837238,3.3817 7.6067705,6.31588 7.6067705,6.52039 0,0.20451 -0.217371,0.37184 -0.4830471,0.37184 -0.6494833,0 -1.6336194,1.08617 -1.6336194,1.80298 0,0.31805 -0.117311,0.57827 -0.2606913,0.57827 -0.1433804,0 -2.0618688,-1.45852 -4.2633078,-3.24115 z"
               style="fill:#61a4cc;stroke-width:1.63658643"
               inkscape:connector-curvature="0" />
            <path
               inkscape:connector-curvature="0"
               id="path955"
               d="m -25.902513,195.77179 c -0.403231,-0.46845 -9.211527,-15.09363 -9.211527,-15.29469 0,-0.0591 0.267891,-0.008 0.595313,0.11411 0.327422,0.12184 1.368814,0.12841 2.314204,0.0146 0.945391,-0.11381 1.766266,-0.15955 1.824167,-0.10165 0.0579,0.0579 1.87375,3.05471 4.035216,6.65958 3.779245,6.30298 3.907134,6.56313 3.335208,6.78445 -1.402813,0.54286 -1.775005,0.81099 -2.122922,1.52935 -0.346175,0.71478 -0.392453,0.73247 -0.769659,0.29426 z m 9.976902,-31.87781 c -3.223286,-5.61431 -5.858062,-10.49627 -5.912003,-10.9543 -0.189555,-1.60963 2.056871,-2.61505 3.326519,-1.48883 0.462235,0.41002 11.4723275,19.31738 12.2760496,21.08136 0.4313343,0.94668 0.1556173,1.12694 -2.0237873,1.3231 l -1.8520833,0.1667 z"
               style="fill:#82d16e;stroke-width:1.63658643" />
            <path
               inkscape:connector-curvature="0"
               id="path951"
               d="m -24.427758,197.72866 c -0.91159,-0.78412 -0.973484,-2.06694 -0.139959,-2.90084 0.574376,-0.57464 0.684101,-0.58139 10.659848,-0.65595 8.8436868,-0.0661 10.158068,-0.0238 10.7203472,0.34457 0.8263413,0.54144 1.2037615,1.52982 0.8946382,2.34287 -0.2353336,0.61897 -0.2582306,0.62265 -1.6425147,0.26357 -0.9772755,-0.25351 -2.1288215,-0.31334 -3.7896851,-0.19693 -1.3122089,0.092 -4.2494966,0.0211 -6.5273046,-0.15753 -4.519973,-0.35444 -6.210348,-0.12478 -7.698669,1.04593 -0.88842,0.69883 -1.592984,0.67445 -2.476701,-0.0857 z m -11.215448,-21.27071 c 0,-0.68215 12.626651,-23.8063 13.58257,-24.8748 0.292922,-0.32743 0.649348,-0.59532 0.792056,-0.59532 0.142709,0 0.06242,0.21774 -0.178411,0.48386 -0.665451,0.73531 -0.530209,2.08789 0.367877,3.67921 l 0.805762,1.42773 -5.501542,9.9046 -5.501542,9.9046 -1.191196,0.0116 c -0.655162,0.006 -1.637684,0.17095 -2.183387,0.36569 -0.97632,0.34842 -0.992187,0.34351 -0.992187,-0.30719 z"
               style="fill:#606ecd;stroke-width:1.63658643" />
          </g>
        </g>
        <path
           inkscape:connector-curvature="0"
           id="path947"
           d="m -105.44985,206.35189 c -1.10454,-2.13224 -2.71105,-6.31122 -2.52103,-6.55789 0.12579,-0.1633 0.63706,-0.85089 1.13614,-1.52796 1.24913,-1.69462 1.99405,-1.89826 5.95808,-1.6288 1.753764,0.11922 5.331789,0.23449 7.951164,0.25617 5.260628,0.0435 5.817638,0.15527 8.753822,1.75584 2.479878,1.35183 3.465253,1.35086 6.29798,-0.006 3.224397,-1.54474 5.516514,-2.1856 8.363822,-2.33844 2.332281,-0.1252 2.761583,-0.0632 5.953125,0.85959 3.119165,0.90188 3.784648,1.00221 7.14375,1.07705 l 3.704166,0.0825 0.722612,2.25278 c 0.746498,2.32724 1.213879,4.73388 1.061894,5.46789 -0.07711,0.37237 -1.353814,0.44004 -11.231742,0.59531 -6.129609,0.0964 -18.324313,0.17518 -27.099341,0.17518 -14.927092,0 -15.970042,-0.0298 -16.194442,-0.46302 z m 59.648493,-0.22008 c -0.08833,-0.23018 -0.160599,-2.00641 -0.160599,-3.94717 v -3.52865 l 0.912635,-0.56404 c 0.563788,-0.34844 0.857999,-0.70643 0.769694,-0.93654 -0.201379,-0.52479 0.679236,-0.69202 3.905792,-0.74168 3.425614,-0.0527 13.180658,0.70644 13.873535,1.07967 0.282911,0.1524 0.803029,0.58568 1.155817,0.96284 0.835787,0.89354 1.727136,0.86786 2.807681,-0.0809 0.480227,-0.42164 1.560259,-1.02371 2.400067,-1.33792 1.438786,-0.53832 1.715786,-0.55516 4.798597,-0.29171 1.799418,0.15378 5.095489,0.27959 7.3246005,0.27959 h 4.0529297 l 3.372297,1.35285 c 4.0121547,1.60954 4.4035422,1.6056 8.9728036,-0.0902 4.1079132,-1.52462 5.2614832,-1.57194 8.2410062,-0.33802 2.763874,1.1446 3.128028,1.13561 7.312609,-0.18067 l 2.728058,-0.85812 7.937499,0.0773 c 8.911638,0.0868 8.31296,-0.0532 9.516131,2.22552 0.401696,0.76079 1.028578,1.63706 1.393071,1.94729 l 0.662715,0.56404 -1.023458,1.02568 c -0.562901,0.56413 -1.422824,1.64977 -1.910938,2.41252 l -0.887475,1.38684 H -1.6435246 c -39.8756464,0 -44.0122764,-0.0392 -44.1578324,-0.41852 z"
           style="fill:#92683e;stroke-width:1.63658643" />
        <path
           sodipodi:nodetypes="ccsccsccccscsscssccssccsssccssssssssssscscssscsssssscccccccccccscssc"
           inkscape:connector-curvature="0"
           id="path945"
           d="m -52.014381,200.28363 c -1.103903,-2.25624 -1.475289,-3.71615 -1.654875,-6.22577 -0.380457,-5.3166 -1.871339,-8.60732 -6.25267,-13.80106 -5.570097,-6.60293 -6.832247,-8.44983 -7.848776,-11.48513 -1.866598,-4.54996 0.473581,-6.99173 -2.741378,-8.18526 -1.849432,-0.67306 -1.429487,-3.55018 -3.171755,-6.82087 -3.002113,-5.63576 -4.480189,-7.45657 -7.219664,-8.89373 -1.255805,-0.65882 -1.628021,-0.72232 -4.157419,-0.70926 -2.318673,0.012 -3.126928,0.13467 -4.887201,0.74188 -4.106489,1.41655 -9.814407,4.80497 -15.022691,8.918 -1.27331,1.00555 -2.31511,1.76126 -2.31511,1.67937 0,-0.24218 5.33377,-7.18286 7.618622,-9.9139 4.412437,-5.27409 8.496859,-8.45818 10.849802,-8.45818 1.687553,0 4.60201,1.05527 6.005537,2.17448 0.727604,0.58021 2.692135,1.86344 4.365624,2.8516 3.146867,1.85818 5.119865,3.63546 6.85536,6.17534 1.218895,1.78384 3.996726,7.63937 7.175031,15.12462 3.042154,7.16461 5.123247,11.5756 5.678907,12.03675 0.206719,0.17156 2.355326,1.04663 2.488041,0.96461 1.460844,-0.90285 -2.77236,-21.32203 -5.283478,-29.14094 -1.469344,-4.57513 -1.55419,-7.38078 -9.339425,-13.09234 -4.664729,-3.42223 -6.967074,-7.11521 -8.085984,-8.20662 -4.452688,-4.71008 -8.468147,-9.08513 -9.027684,-13.40902 -2.244043,-3.43753 -2.27485,-4.52179 -0.261454,-9.20185 1.326153,-3.08259 4.55306,-9.697287 4.393882,-9.006827 -0.858124,3.722261 -1.236219,8.085477 -0.933919,10.777437 0.590577,5.25904 3.572438,10.15189 7.74379,14.96184 2.835341,4.80791 7.515421,2.69316 15.640105,16.15257 0.872449,3.47901 4.325066,14.59559 4.543802,12.59149 0.100415,-0.92002 -2.574385,-18.15605 -2.350717,-19.02918 0.523214,-2.04241 0.343861,-7.44433 -0.588573,-17.72708 -0.875713,-9.65723 2.893829,-16.398308 -0.688078,-24.209369 -4.778054,-10.419499 3.536764,-12.29397 1.5886,-11.580983 0,0 5.288879,0.27005 9.275926,4.691257 2.074536,2.300438 4.317463,6.095976 4.112964,6.095976 -0.08357,0 -0.865727,-0.594014 -1.738127,-1.320032 -5.297691,-4.408784 -8.992354,-5.787722 -10.402728,-3.88255 -0.891199,1.203855 -0.705213,4.490029 0.60399,10.671847 1.026343,4.84621 1.071632,5.259138 1.015651,9.260414 l -0.05859,4.18802 1.23771,4.49792 c 0.680741,2.47385 1.363316,5.21229 1.516833,6.08542 0.890635,5.06546 1.181613,23.93153 0.614161,39.81979 -0.429458,12.02448 0.935424,20.76044 1.330242,21.92261 1.990321,5.85863 2.813899,-6.0118 4.676498,-19.08232 2.243207,-15.74138 7.483711,-23.37343 10.678441,-24.88943 1.271976,-0.60359 5.74299,-0.52649 5.74299,0.099 0,0.11312 -0.753504,1.61804 -1.674453,3.34428 -3.909335,7.3277 -5.545539,11.71477 -6.796515,18.22318 -1.589408,8.26914 -2.202064,10.6572 -4.512205,17.58808 -2.46864,7.40641 -3.156411,10.40266 -3.156411,13.7508 0,2.61154 -0.529673,5.70245 0.326598,8.00656 0.368305,0.99106 0.493951,4.14845 0.526619,4.26781 0.08482,0.30993 -2.457277,0.65384 -3.423093,0.847 -0.677143,0.13543 -2.416045,0.94994 -3.312445,0.13969 z M 0.52401759,148.14091 c -0.287311,-0.20124 -4.27263099,-2.27616 -8.85626799,-4.61093 -8.6718066,-4.41718 -14.1833816,-6.90171 -18.6049926,-8.38682 -1.429007,-0.47997 -7.201243,-1.31453 -7.257531,-1.37082 -0.152365,-0.15236 6.34448,-2.23856 6.871382,-2.56541 0.357876,-0.22199 0.838856,-0.0774 2.248959,0.67625 0.986546,0.52726 2.174885,1.03864 2.64075,1.13642 1.221483,0.25636 3.418427,1.7676 7.487346,5.15042 1.964531,1.63327 4.375126,3.50497 5.3568746,4.15934 1.79945,1.19939 4.200678,2.2087 5.254662,2.2087 0.480748,0 5.792628,3.54101 5.792628,3.86148 0,0.21574 -0.42436,0.0982 -0.93381001,-0.25863 z"
           style="fill:#538134;stroke-width:1.63658643" />
      </g>
    </g>
  </g>
</svg>
